<svg width="647" height="277" viewBox="0 0 647 277" fill="none" xmlns="http://www.w3.org/2000/svg">
<path d="M0.492188 237.2L57.6922 133H7.2694L22.5 99H121.092H123L64.4922 207.8H117.692V242H0.492188V237.2Z" fill="url(#paint0_linear)"/>
<path d="M157.483 244.6C147.216 244.6 138.683 242 131.883 236.8C125.216 231.467 121.883 223.533 121.883 213C121.883 201 126.549 192.333 135.883 187C145.349 181.533 159.416 178.8 178.083 178.8H187.083V177C187.083 171.933 186.283 168.133 184.683 165.6C183.083 163.067 179.816 161.8 174.883 161.8C167.416 161.8 163.283 165.533 162.483 173H125.683C126.483 160.467 131.416 150.933 140.483 144.4C149.683 137.733 161.949 134.4 177.283 134.4C192.883 134.4 204.883 137.733 213.283 144.4C221.816 151.067 226.083 161.067 226.083 174.4V242H188.083V230C182.616 239.733 172.416 244.6 157.483 244.6ZM171.683 218.2C176.216 218.2 179.883 217.067 182.683 214.8C185.616 212.4 187.083 209.267 187.083 205.4V200H178.683C172.016 200 167.349 200.733 164.683 202.2C162.016 203.667 160.683 206.267 160.683 210C160.683 215.467 164.349 218.2 171.683 218.2Z" fill="#0066FF"/>
<path d="M261.769 231.6L219.969 137.4H262.569L282.369 189.6L300.769 137.4H337.969L282.169 276.8H244.769L261.769 231.6Z" fill="#0066FF"/>
<path d="M392.844 244.4C367.11 244.4 354.244 231.933 354.244 207V163.8H342.044V137.4H354.244V116H393.644V137.4H413.644V163.8H393.644V203.2C393.644 210 397.044 213.4 403.844 213.4C407.177 213.4 410.444 212.867 413.644 211.8V241.4C406.844 243.4 399.91 244.4 392.844 244.4Z" fill="#0066FF"/>
<path d="M456.741 244.6C446.341 244.6 437.874 241.333 431.341 234.8C424.941 228.133 421.741 218.533 421.741 206V137.4H461.141V199.2C461.141 209.867 465.541 215.2 474.341 215.2C484.741 215.2 489.941 209.133 489.941 197V137.4H529.341V242H489.941V225.8C483.407 238.333 472.341 244.6 456.741 244.6Z" fill="#0066FF"/>
<path d="M539.127 137.4H578.527V154.2C585.327 141.133 596.86 134.6 613.127 134.6C623.393 134.6 631.527 137.867 637.527 144.4C643.66 150.933 646.727 160.533 646.727 173.2V242H607.327V182C607.327 171.333 602.927 166 594.127 166C583.727 166 578.527 172.067 578.527 184.2V242H539.127V137.4Z" fill="#0066FF"/>
<path d="M67 58.0003C24 72.5002 9.40879 114.964 7.00087 133.492C54.6865 109.974 124.252 108.311 155.5 93.5003C186.748 78.6899 198.371 46.4936 195.5 24C171.5 31.0003 128.368 37.3063 67 58.0003Z" fill="url(#paint1_linear)"/>
<g filter="url(#filter0_i)">
<path d="M141.5 67C138.3 68.6 37.3789 97.1696 7.37872 130.987C7.87872 127.987 7.99995 127.5 9.99996 119.5C27.5 92 141.5 67 141.5 67Z" fill="#E67300" fill-opacity="0.3"/>
</g>
<defs>
<filter id="filter0_i" x="7.37866" y="67" width="134.121" height="67.9871" filterUnits="userSpaceOnUse" color-interpolation-filters="sRGB">
<feFlood flood-opacity="0" result="BackgroundImageFix"/>
<feBlend mode="normal" in="SourceGraphic" in2="BackgroundImageFix" result="shape"/>
<feColorMatrix in="SourceAlpha" type="matrix" values="0 0 0 0 0 0 0 0 0 0 0 0 0 0 0 0 0 0 127 0" result="hardAlpha"/>
<feOffset dy="4"/>
<feGaussianBlur stdDeviation="2.5"/>
<feComposite in2="hardAlpha" operator="arithmetic" k2="-1" k3="1"/>
<feColorMatrix type="matrix" values="0 0 0 0 0.6 0 0 0 0 0.35 0 0 0 0 0 0 0 0 0.2 0"/>
<feBlend mode="normal" in2="shape" result="effect1_innerShadow"/>
</filter>
<linearGradient id="paint0_linear" x1="66.5" y1="85.5" x2="87" y2="159" gradientUnits="userSpaceOnUse">
<stop stop-color="#003380"/>
<stop offset="1" stop-color="#0066FF"/>
</linearGradient>
<linearGradient id="paint1_linear" x1="9.3061" y1="131.156" x2="226.375" y2="72.6179" gradientUnits="userSpaceOnUse">
<stop stop-color="#FFF45F"/>
<stop offset="0.708333" stop-color="#FFAA00"/>
<stop offset="0.963542" stop-color="#FF6B00"/>
</linearGradient>
</defs>
</svg>
